<svg width="12" height="23" viewBox="0 0 12 23" fill="none" xmlns="http://www.w3.org/2000/svg">
<path d="M11.4946 23C11.362 23.0002 11.2347 22.9477 11.1408 22.854L0.146317 11.8567C-0.0487723 11.6616 -0.0487723 11.3451 0.146317 11.1499L11.1408 0.152587C11.3326 -0.0459735 11.6489 -0.0514565 11.8475 0.140309C12.046 0.332121 12.0514 0.648544 11.8597 0.847151C11.8557 0.851322 11.8516 0.855399 11.8475 0.85943L1.2068 11.5028L11.8484 22.1462C12.0439 22.3412 12.0442 22.6577 11.8493 22.8532C11.7553 22.9474 11.6277 23.0002 11.4946 23Z" fill="#8B8B8B"/>
<path d="M11.4946 23C11.362 23.0002 11.2347 22.9477 11.1408 22.854L0.146317 11.8567C-0.0487723 11.6616 -0.0487723 11.3451 0.146317 11.1499L11.1408 0.152587C11.3326 -0.0459735 11.6489 -0.0514565 11.8475 0.140309C12.046 0.332121 12.0514 0.648544 11.8597 0.847151C11.8557 0.851322 11.8516 0.855399 11.8475 0.85943L1.2068 11.5028L11.8484 22.1462C12.0439 22.3412 12.0442 22.6577 11.8493 22.8532C11.7553 22.9474 11.6277 23.0002 11.4946 23Z" fill="#5A5454"/>
</svg>
