<svg width="5" height="5" viewBox="0 0 5 5" fill="none" xmlns="http://www.w3.org/2000/svg">
<path fill-rule="evenodd" clip-rule="evenodd" d="M0.180412 4.45876C0.0773196 4.56186 0.0773196 4.7165 0.180412 4.81959C0.283505 4.92268 0.438144 4.92268 0.541237 4.81959L2.44845 2.91237L4.45876 4.92268C4.56186 5.02577 4.7165 5.02577 4.81959 4.92268C4.92268 4.81959 4.92268 4.66495 4.81959 4.56186L2.80928 2.55155L4.92268 0.438144C5.02577 0.335052 5.02577 0.180412 4.92268 0.0773196C4.81959 -0.0257732 4.66495 -0.0257732 4.56186 0.0773196L2.44845 2.19072L0.438144 0.180412C0.335052 0.0773196 0.180412 0.0773196 0.0773196 0.180412C-0.0257732 0.283505 -0.0257732 0.438144 0.0773196 0.541237L2.08763 2.55155L0.180412 4.45876Z" fill="#5A5454"/>
</svg>
