<svg width="37" height="37" viewBox="0 0 37 37" fill="none" xmlns="http://www.w3.org/2000/svg">
<g clip-path="url(#clip0)">
<path d="M35.902 13.1851L31.3537 9.3893V4.00409C31.3537 3.53912 30.9479 3.18406 30.4745 3.18406H23.855L21.2005 0.969105C19.6365 -0.324359 17.3708 -0.324359 15.8068 0.977559L13.1522 3.18406H6.44821C5.98324 3.18406 5.56899 3.53067 5.56899 4.00409V9.47384L1.10527 13.1851C0.919286 13.3458 0.809384 13.5909 0.817838 13.8361H0.834746V32.7646C0.834746 35.0979 2.71154 37.0001 5.03639 37.0001H31.9624C34.2957 37.0001 36.1641 35.0895 36.1641 32.7646V13.8361H36.181C36.1979 13.5825 36.0964 13.3458 35.902 13.1851ZM31.3537 11.5873L34.0167 13.8023L31.3537 15.7805V11.5873ZM16.8889 2.27102C17.8273 1.49325 19.1884 1.50171 20.1268 2.27948L21.2005 3.18406H15.7983L16.8889 2.27102ZM7.2598 4.87486H29.6629V17.0402L20.0338 24.2092C19.1208 24.877 17.8865 24.877 16.9819 24.2092L7.2598 16.9725V4.87486ZM5.56899 11.6634V15.7129L2.99052 13.7938L5.56899 11.6634ZM34.4817 32.7562C34.4902 34.1596 33.3658 35.3008 31.9709 35.3093H5.03639C3.64148 35.3008 2.51709 34.1595 2.52555 32.7646V15.5185L15.9843 25.5703C17.4807 26.6778 19.5266 26.6778 21.0229 25.5703L34.4817 15.5185V32.7562Z" fill="#F5F5F5"/>
<path d="M17.8273 11.6381H13.2621C12.7972 11.6381 12.4167 12.0185 12.4167 12.4835C12.4167 12.9485 12.7972 13.3289 13.2621 13.3289H17.8273C18.2923 13.3289 18.6727 12.9485 18.6727 12.4835C18.6727 12.0185 18.2923 11.6381 17.8273 11.6381Z" fill="#F5F5F5"/>
<path d="M23.7451 15.8651H13.2621C12.7972 15.8651 12.4167 16.2455 12.4167 16.7105C12.4167 17.1754 12.7972 17.5559 13.2621 17.5559H23.7451C24.2101 17.5559 24.5905 17.1754 24.5905 16.7105C24.5905 16.2455 24.2101 15.8651 23.7451 15.8651Z" fill="#F5F5F5"/>
</g>
<defs>
<clipPath id="clip0">
<rect width="37" height="37" fill="white"/>
</clipPath>
</defs>
</svg>
