<svg width="20" height="20" viewBox="0 0 20 20" fill="none" xmlns="http://www.w3.org/2000/svg">
<path d="M0.244898 18.5796L5.05306 13.7714C3.86123 12.3184 3.14286 10.4571 3.14286 8.42857C3.14286 3.77551 6.91837 0 11.5714 0C16.2286 0 20 3.77551 20 8.42857C20 13.0816 16.2286 16.8571 11.5714 16.8571C9.54286 16.8571 7.68571 16.1429 6.23265 14.951L1.42449 19.7551C1.09796 20.0816 0.571428 20.0816 0.244898 19.7551C-0.0816326 19.4327 -0.0816326 18.902 0.244898 18.5796ZM11.5714 15.1796C15.298 15.1796 18.3265 12.151 18.3265 8.42857C18.3265 4.70612 15.298 1.67347 11.5714 1.67347C7.84898 1.67347 4.81633 4.70612 4.81633 8.42857C4.81633 12.151 7.84898 15.1796 11.5714 15.1796Z" fill="#5A5454"/>
</svg>
