<svg width="38" height="38" viewBox="0 0 38 38" fill="none" xmlns="http://www.w3.org/2000/svg">
<path d="M30.1277 4.9787H26.6899V3.44075C26.6899 2.94316 26.1471 2.71701 25.6495 2.71701H22.9807C22.3474 0.907623 20.7642 0.00292887 18.9548 0.00292887C17.1653 -0.0643452 15.5377 1.03291 14.9289 2.71701H12.3053C11.8077 2.71701 11.3101 2.94316 11.3101 3.44075V4.9787H7.87224C5.83497 5.00043 4.16827 6.60757 4.07251 8.64267V34.5621C4.07251 36.5524 5.8819 37.9999 7.87224 37.9999H30.1277C32.118 37.9999 33.9274 36.5524 33.9274 34.5621V8.64276C33.8316 6.60757 32.1649 5.00043 30.1277 4.9787ZM13.1194 4.5264H15.6074C16.0417 4.47341 16.3905 4.14301 16.4669 3.71218C16.7348 2.54558 17.7582 1.70816 18.9548 1.67664C20.1403 1.71257 21.1484 2.55259 21.3975 3.71218C21.4786 4.15791 21.8504 4.49254 22.3021 4.5264H24.8806V8.14517H13.1194V4.5264ZM32.118 34.5622C32.118 35.5573 31.1228 36.1906 30.1277 36.1906H7.87224C6.87707 36.1906 5.8819 35.5573 5.8819 34.5622V8.64276C5.97419 7.60689 6.83239 6.80714 7.87224 6.78818H11.3101V9.09515C11.3579 9.602 11.7968 9.98114 12.3052 9.95465H25.6494C26.1672 9.98296 26.6199 9.60901 26.6898 9.09515V6.78809H30.1276C31.1674 6.80714 32.0256 7.60681 32.1179 8.64267V34.5622H32.118Z" fill="#F5F5F5"/>
<path d="M15.5169 20.2228C15.1775 19.8651 14.6142 19.845 14.2503 20.1776L11.3552 22.9369L10.1339 21.6703C9.79458 21.3126 9.23128 21.2925 8.86729 21.6251C8.51689 21.9922 8.51689 22.5698 8.86729 22.9369L10.7219 24.8368C10.8824 25.0165 11.1143 25.1159 11.3551 25.1082C11.5938 25.1048 11.8214 25.0072 11.9884 24.8368L15.5167 21.4894C15.8665 21.1685 15.8899 20.6248 15.5689 20.2751C15.5524 20.2568 15.535 20.2394 15.5169 20.2228Z" fill="#F5F5F5"/>
<path d="M28.4993 22.1678H18.0954C17.5957 22.1678 17.1907 22.5729 17.1907 23.0725C17.1907 23.5722 17.5957 23.9772 18.0954 23.9772H28.4993C28.999 23.9772 29.404 23.5722 29.404 23.0725C29.404 22.5729 28.999 22.1678 28.4993 22.1678Z" fill="#F5F5F5"/>
<path d="M15.5169 12.9853C15.1775 12.6276 14.6142 12.6075 14.2503 12.9401L11.3552 15.6994L10.1339 14.4328C9.79458 14.0751 9.23128 14.0549 8.86729 14.3876C8.51689 14.7547 8.51689 15.3323 8.86729 15.6994L10.7219 17.5992C10.8824 17.779 11.1143 17.8784 11.3551 17.8707C11.5938 17.8673 11.8214 17.7697 11.9884 17.5992L15.5167 14.2519C15.8665 13.931 15.8899 13.3873 15.5689 13.0376C15.5524 13.0193 15.535 13.0019 15.5169 12.9853Z" fill="#F5F5F5"/>
<path d="M28.4993 14.9304H18.0954C17.5957 14.9304 17.1907 15.3354 17.1907 15.835C17.1907 16.3347 17.5957 16.7397 18.0954 16.7397H28.4993C28.999 16.7397 29.404 16.3347 29.404 15.835C29.404 15.3354 28.999 14.9304 28.4993 14.9304Z" fill="#F5F5F5"/>
<path d="M15.5169 27.4603C15.1775 27.1026 14.6142 27.0825 14.2503 27.4151L11.3552 30.1744L10.1339 28.9077C9.79458 28.5501 9.23128 28.53 8.86729 28.8625C8.51689 29.2297 8.51689 29.8072 8.86729 30.1744L10.7219 32.0742C10.8824 32.254 11.1143 32.3534 11.3551 32.3457C11.5938 32.3423 11.8214 32.2447 11.9884 32.0742L15.5167 28.7269C15.8665 28.406 15.8899 27.8623 15.5689 27.5126C15.5524 27.4944 15.535 27.477 15.5169 27.4603Z" fill="#F5F5F5"/>
<path d="M28.4993 29.4055H18.0954C17.5957 29.4055 17.1907 29.8105 17.1907 30.3101C17.1907 30.8098 17.5957 31.2148 18.0954 31.2148H28.4993C28.999 31.2148 29.404 30.8098 29.404 30.3101C29.404 29.8105 28.999 29.4055 28.4993 29.4055Z" fill="#F5F5F5"/>
</svg>
