<svg width="16" height="17" viewBox="0 0 16 17" fill="none" xmlns="http://www.w3.org/2000/svg">
<path d="M1.1933 12.8452H1.2801L5.46779 11.9339C5.54936 11.9203 5.62495 11.8825 5.68475 11.8254L12.7799 4.73019C13.2982 4.21301 13.5874 3.50955 13.5827 2.77741C13.5837 2.03957 13.2955 1.33076 12.7799 0.802898C12.2628 0.284592 11.5593 -0.00458834 10.8271 0.000104659C10.0903 -0.0064157 9.3835 0.291984 8.87433 0.824619L1.80082 7.91977C1.73844 7.96998 1.69296 8.03813 1.67062 8.11505L0.759344 12.3027C0.734466 12.4531 0.782809 12.6062 0.889543 12.715C0.969656 12.7968 1.07884 12.8436 1.1933 12.8452ZM10.8271 0.868019C11.8697 0.867936 12.7149 1.71305 12.7149 2.7556C12.7149 2.76287 12.7149 2.77014 12.7148 2.77741C12.7219 3.27407 12.526 3.75214 12.1724 4.10096L9.50356 1.41041C9.85517 1.06101 10.3314 0.865818 10.8271 0.868019ZM8.89601 2.03969L11.5648 4.70851L5.38095 10.8707L2.71213 8.22353L8.89601 2.03969ZM2.36497 9.09148L4.51304 11.2395L1.75742 11.8471L2.36497 9.09148Z" fill="#5A5454"/>
<path d="M14.9715 15.1886H0.433957C0.194282 15.1886 0 15.3828 0 15.6225C0 15.8622 0.194282 16.0565 0.433957 16.0565H14.9715C15.2112 16.0565 15.4055 15.8622 15.4055 15.6225C15.4055 15.3828 15.2112 15.1886 14.9715 15.1886Z" fill="#5A5454"/>
</svg>
